<svg width="354" height="332" viewBox="0 0 354 332" fill="none" xmlns="http://www.w3.org/2000/svg">
<g opacity="0.7">
<path d="M301.059 2.89165H238.795V76.7704H301.059V2.89165Z" fill="#F4F4F4"/>
<path d="M301.059 76.7704H303.079V2.89165H301.059V76.7704Z" fill="#F4F4F4"/>
<path opacity="0.05" d="M301.059 76.7704H303.079V2.89165H301.059V76.7704Z" fill="#292A2E"/>
<path opacity="0.05" d="M289.717 17.6694H250.137V61.9931H289.717V17.6694Z" fill="#292A2E"/>
<path opacity="0.03" d="M289.717 17.6694H287.654V61.9931H289.717V17.6694Z" fill="#292A2E"/>
<path d="M351.98 96.72H301.059V148.16H351.98V96.72Z" fill="#F4F4F4"/>
<path opacity="0.05" d="M342.704 106.09H310.335V138.789H342.704V106.09Z" fill="#292A2E"/>
<path d="M351.98 148.16H354V96.72H351.98V148.16Z" fill="#F4F4F4"/>
<path opacity="0.05" d="M351.98 148.16H354V96.72H351.98V148.16Z" fill="#292A2E"/>
<path opacity="0.03" d="M342.704 106.09H340.641V138.789H342.704V106.09Z" fill="#292A2E"/>
</g>
<g opacity="0.7">
<path d="M173.573 0H26.9877V146.731H173.573V0Z" fill="#F4F4F4"/>
<path d="M26.9877 0H25.3076V146.731H26.9877V0Z" fill="#F4F4F4"/>
<path opacity="0.05" d="M26.9877 0H25.3076V146.731H26.9877V0Z" fill="#292A2E"/>
<path opacity="0.05" d="M62.4989 101.109V62.7201H93.9145V85.0234H142.577V124.515H163.26V146.731H142.577H138.593H34.0391V101.109H62.4989Z" fill="#292A2E"/>
<path opacity="0.34" d="M89.8822 66.8882H67.0049V71.0563H89.8822V66.8882Z" fill="#FFFFFA"/>
<path opacity="0.34" d="M89.8822 75.5258H67.0049V79.694H89.8822V75.5258Z" fill="#FFFFFA"/>
<path opacity="0.34" d="M89.8822 84.1631H67.0049V88.3312H89.8822V84.1631Z" fill="#FFFFFA"/>
<path opacity="0.34" d="M42.3125 105.156H38.096V109.324H42.3125V105.156Z" fill="#FFFFFA"/>
<path opacity="0.34" d="M42.3125 113.793H38.096V117.961H42.3125V113.793Z" fill="#FFFFFA"/>
<path opacity="0.34" d="M42.3125 122.43H38.096V126.599H42.3125V122.43Z" fill="#FFFFFA"/>
<path opacity="0.34" d="M50.1132 105.156H45.8968V109.324H50.1132V105.156Z" fill="#FFFFFA"/>
<path opacity="0.34" d="M50.1132 113.793H45.8968V117.961H50.1132V113.793Z" fill="#FFFFFA"/>
<path opacity="0.34" d="M50.1132 122.43H45.8968V126.599H50.1132V122.43Z" fill="#FFFFFA"/>
<path opacity="0.34" d="M57.7031 105.156H53.4866V109.324H57.7031V105.156Z" fill="#FFFFFA"/>
<path opacity="0.34" d="M57.7031 113.793H53.4866V117.961H57.7031V113.793Z" fill="#FFFFFA"/>
<path opacity="0.34" d="M57.7031 122.43H53.4866V126.599H57.7031V122.43Z" fill="#FFFFFA"/>
<path d="M26.9877 72.5422H56.4832V0H58.9226V72.5422H138.593V0H141.033V72.5422H173.573V74.9839H141.033V146.731H138.593V74.9839H58.9226V146.731H56.4832V74.9839H26.9877V72.5422Z" fill="white"/>
<path d="M179.413 146.554H21.1483V151.433H179.413V146.554Z" fill="#F4F4F4"/>
<path opacity="0.1" d="M179.413 146.554H21.1483V151.433H179.413V146.554Z" fill="#292A2E"/>
<path opacity="0.1" d="M21.1483 146.554H18.8634V151.433H21.1483V146.554Z" fill="#292A2E"/>
<path opacity="0.1" d="M21.1483 146.554H18.8634V151.433H21.1483V146.554Z" fill="#292A2E"/>
</g>
<path d="M111.59 18.2199H283.165C285.637 18.2199 288.007 19.2027 289.755 20.9521C291.502 22.7014 292.484 25.074 292.484 27.548V233.249C292.484 235.776 291.481 238.201 289.695 239.988C287.91 241.775 285.488 242.78 282.962 242.78H111.793C109.268 242.78 106.846 241.775 105.061 239.988C103.275 238.201 102.272 235.776 102.272 233.249V27.5469C102.272 25.0732 103.254 22.7009 105.001 20.9518C106.749 19.2027 109.119 18.22 111.59 18.2199V18.2199Z" fill="white"/>
<path d="M282.962 243.141H111.793C109.172 243.141 106.658 242.099 104.805 240.244C102.951 238.388 101.91 235.872 101.91 233.248V27.1847C101.91 24.7109 102.892 22.3386 104.639 20.5895C106.387 18.8404 108.757 17.8577 111.228 17.8577H283.527C285.998 17.8577 288.369 18.8404 290.116 20.5897C291.864 22.339 292.846 24.7115 292.846 27.1854V233.248C292.846 235.872 291.805 238.388 289.951 240.244C288.098 242.099 285.584 243.141 282.962 243.141V243.141ZM102.634 27.5313V233.248C102.634 234.452 102.87 235.645 103.331 236.757C103.791 237.869 104.466 238.88 105.316 239.732C106.167 240.583 107.177 241.258 108.288 241.719C109.399 242.18 110.59 242.417 111.793 242.417H282.962C285.392 242.417 287.722 241.451 289.439 239.731C291.157 238.012 292.122 235.68 292.122 233.248V27.4408C292.122 26.2773 291.893 25.1252 291.448 24.0504C291.003 22.9755 290.351 21.9989 289.529 21.1763C288.707 20.3537 287.731 19.7013 286.657 19.2562C285.583 18.811 284.432 18.582 283.27 18.5822H111.575C109.203 18.5822 106.929 19.525 105.253 21.2033C103.576 22.8815 102.634 25.1578 102.634 27.5313V27.5313Z" fill="#292A2E"/>
<path d="M139.17 62.874H118.377C117.219 62.8727 116.108 62.4114 115.288 61.5913C114.469 60.7712 114.008 59.6593 114.006 58.4994V37.6859C114.008 36.526 114.469 35.4139 115.288 34.5936C116.108 33.7734 117.219 33.312 118.377 33.3106H139.17C140.329 33.3119 141.44 33.7732 142.259 34.5935C143.079 35.4137 143.54 36.5259 143.541 37.6859V58.4994C143.54 59.6594 143.079 60.7713 142.259 61.5914C141.44 62.4115 140.329 62.8728 139.17 62.874V62.874ZM118.377 34.0344C117.41 34.0355 116.483 34.4205 115.8 35.1049C115.116 35.7894 114.731 36.7173 114.73 37.6852V58.4994C114.731 59.4673 115.116 60.3953 115.8 61.0797C116.483 61.7641 117.41 62.1491 118.377 62.1503H139.17C140.137 62.1492 141.064 61.7643 141.748 61.0798C142.432 60.3954 142.816 59.4674 142.818 58.4994V37.6859C142.816 36.718 142.432 35.79 141.748 35.1055C141.064 34.4211 140.137 34.0361 139.17 34.0351L118.377 34.0344Z" fill="#292A2E"/>
<path d="M139.17 104.109H118.377C117.219 104.108 116.108 103.646 115.288 102.826C114.469 102.006 114.008 100.894 114.006 99.7337V78.9206C114.008 77.7605 114.469 76.6484 115.288 75.828C116.107 75.0077 117.219 74.5463 118.377 74.5449H139.17C140.329 74.5463 141.44 75.0077 142.26 75.828C143.079 76.6483 143.54 77.7605 143.541 78.9206V99.7337C143.54 100.894 143.079 102.006 142.259 102.826C141.44 103.646 140.329 104.108 139.17 104.109V104.109ZM118.377 75.2705C117.41 75.2716 116.483 75.6567 115.8 76.3412C115.116 77.0257 114.731 77.9537 114.73 78.9217V99.7348C114.731 100.703 115.116 101.631 115.8 102.315C116.483 103 117.41 103.385 118.377 103.386H139.17C140.137 103.385 141.064 103 141.748 102.315C142.432 101.631 142.816 100.703 142.818 99.7348V78.9206C142.816 77.9526 142.432 77.0246 141.748 76.3401C141.064 75.6556 140.137 75.2705 139.17 75.2694L118.377 75.2705Z" fill="#292A2E"/>
<path d="M139.17 145.344H118.377C117.219 145.343 116.108 144.881 115.288 144.061C114.469 143.241 114.008 142.129 114.006 140.969V120.156C114.008 118.996 114.469 117.884 115.288 117.063C116.108 116.243 117.219 115.782 118.377 115.78H139.17C140.329 115.782 141.44 116.243 142.259 117.063C143.079 117.883 143.54 118.996 143.541 120.156V140.969C143.54 142.129 143.079 143.241 142.259 144.061C141.44 144.881 140.329 145.343 139.17 145.344ZM118.377 116.505C117.41 116.506 116.483 116.891 115.8 117.575C115.116 118.26 114.731 119.188 114.73 120.156V140.969C114.731 141.937 115.116 142.865 115.8 143.549C116.483 144.234 117.41 144.619 118.377 144.62H139.17C140.137 144.619 141.064 144.234 141.748 143.549C142.432 142.865 142.816 141.937 142.818 140.969V120.156C142.816 119.188 142.432 118.26 141.748 117.575C141.064 116.891 140.137 116.506 139.17 116.505H118.377Z" fill="#292A2E"/>
<path d="M139.17 186.013H118.377C117.219 186.011 116.108 185.55 115.288 184.73C114.469 183.909 114.008 182.797 114.006 181.637V160.824C114.008 159.664 114.469 158.552 115.288 157.732C116.107 156.911 117.219 156.45 118.377 156.448H139.17C140.329 156.45 141.44 156.911 142.26 157.732C143.079 158.552 143.54 159.664 143.541 160.824V181.637C143.54 182.797 143.079 183.91 142.259 184.73C141.44 185.55 140.329 186.011 139.17 186.013V186.013ZM118.377 157.173C117.41 157.174 116.483 157.559 115.799 158.244C115.116 158.928 114.731 159.856 114.73 160.824V181.637C114.731 182.605 115.116 183.533 115.8 184.218C116.483 184.902 117.41 185.287 118.377 185.288H139.17C140.137 185.287 141.064 184.902 141.748 184.218C142.432 183.533 142.816 182.605 142.818 181.637V160.824C142.817 159.856 142.432 158.928 141.748 158.244C141.064 157.559 140.137 157.174 139.17 157.173H118.377Z" fill="#292A2E"/>
<path d="M139.17 226.681H118.377C117.219 226.679 116.107 226.218 115.288 225.398C114.469 224.577 114.008 223.465 114.006 222.305V201.492C114.008 200.332 114.469 199.22 115.288 198.4C116.107 197.579 117.219 197.118 118.377 197.117H139.17C140.329 197.118 141.44 197.579 142.26 198.4C143.079 199.22 143.54 200.332 143.541 201.492V222.305C143.54 223.465 143.079 224.578 142.259 225.398C141.44 226.218 140.329 226.679 139.17 226.681V226.681ZM118.377 197.841C117.41 197.842 116.483 198.227 115.8 198.911C115.116 199.596 114.731 200.524 114.73 201.492V222.305C114.731 223.273 115.116 224.201 115.8 224.886C116.483 225.57 117.41 225.955 118.377 225.956H139.17C140.137 225.955 141.064 225.57 141.748 224.886C142.432 224.201 142.816 223.273 142.818 222.305V201.492C142.816 200.524 142.432 199.596 141.748 198.912C141.064 198.227 140.137 197.842 139.17 197.841L118.377 197.841Z" fill="#292A2E"/>
<path d="M125.075 97.6538C124.701 97.6541 124.342 97.509 124.072 97.2492L118.012 91.4174C117.875 91.2855 117.765 91.1279 117.689 90.9536C117.612 90.7793 117.571 90.5917 117.567 90.4014C117.564 90.2112 117.597 90.0221 117.667 89.8448C117.736 89.6676 117.839 89.5058 117.971 89.3686C118.103 89.2315 118.26 89.1216 118.434 89.0453C118.609 88.969 118.796 88.9278 118.986 88.9241C119.176 88.9203 119.365 88.954 119.542 89.0233C119.719 89.0927 119.881 89.1962 120.018 89.3281L125.051 94.1714L137.666 81.4283C137.937 81.1599 138.303 81.0094 138.684 81.0095C139.066 81.0097 139.431 81.1605 139.702 81.4291C139.973 81.6978 140.127 82.0626 140.131 82.4443C140.135 82.826 139.988 83.1937 139.722 83.4676L126.103 97.2231C125.969 97.3596 125.809 97.468 125.633 97.5419C125.456 97.6158 125.267 97.6539 125.075 97.6538V97.6538Z" fill="#0CBC8B"/>
<path d="M125.075 138.889C124.701 138.889 124.342 138.744 124.072 138.485L118.012 132.653C117.735 132.386 117.575 132.021 117.567 131.637C117.56 131.253 117.705 130.881 117.971 130.604C118.237 130.327 118.602 130.167 118.986 130.159C119.37 130.152 119.741 130.297 120.018 130.563L125.051 135.405L137.666 122.663C137.936 122.39 138.303 122.236 138.687 122.234C139.071 122.232 139.44 122.383 139.713 122.654C139.986 122.924 140.14 123.292 140.141 123.677C140.143 124.061 139.992 124.43 139.722 124.703L126.103 138.459C125.969 138.595 125.809 138.703 125.632 138.777C125.456 138.851 125.267 138.889 125.075 138.889V138.889Z" fill="#0CBC8B"/>
<path opacity="0.5" d="M276.85 41.6476H154.905C154.348 41.6476 153.895 42.1002 153.895 42.6586C153.895 43.2169 154.348 43.6696 154.905 43.6696H276.85C277.408 43.6696 277.86 43.2169 277.86 42.6586C277.86 42.1002 277.408 41.6476 276.85 41.6476Z" fill="#262626"/>
<path opacity="0.5" d="M233.426 52.5144H154.905C154.348 52.5144 153.895 52.967 153.895 53.5253C153.895 54.0837 154.348 54.5363 154.905 54.5363H233.426C233.984 54.5363 234.436 54.0837 234.436 53.5253C234.436 52.967 233.984 52.5144 233.426 52.5144Z" fill="#262626"/>
<path opacity="0.5" d="M276.85 82.8826H154.905C154.348 82.8826 153.895 83.3353 153.895 83.8936C153.895 84.4519 154.348 84.9046 154.905 84.9046H276.85C277.408 84.9046 277.86 84.4519 277.86 83.8936C277.86 83.3353 277.408 82.8826 276.85 82.8826Z" fill="#262626"/>
<path opacity="0.5" d="M233.426 93.7494H154.905C154.348 93.7494 153.895 94.202 153.895 94.7604C153.895 95.3187 154.348 95.7713 154.905 95.7713H233.426C233.984 95.7713 234.436 95.3187 234.436 94.7604C234.436 94.202 233.984 93.7494 233.426 93.7494Z" fill="#262626"/>
<path opacity="0.5" d="M276.85 124.118H154.905C154.348 124.118 153.895 124.57 153.895 125.129C153.895 125.687 154.348 126.14 154.905 126.14H276.85C277.408 126.14 277.86 125.687 277.86 125.129C277.86 124.57 277.408 124.118 276.85 124.118Z" fill="#262626"/>
<path opacity="0.5" d="M233.426 134.984H154.905C154.348 134.984 153.895 135.437 153.895 135.995C153.895 136.554 154.348 137.006 154.905 137.006H233.426C233.984 137.006 234.436 136.554 234.436 135.995C234.436 135.437 233.984 134.984 233.426 134.984Z" fill="#262626"/>
<path opacity="0.5" d="M276.85 164.786H154.905C154.348 164.786 153.895 165.239 153.895 165.797C153.895 166.356 154.348 166.808 154.905 166.808H276.85C277.408 166.808 277.86 166.356 277.86 165.797C277.86 165.239 277.408 164.786 276.85 164.786Z" fill="#262626"/>
<path opacity="0.5" d="M233.426 175.653H154.905C154.348 175.653 153.895 176.106 153.895 176.664C153.895 177.222 154.348 177.675 154.905 177.675H233.426C233.984 177.675 234.436 177.222 234.436 176.664C234.436 176.106 233.984 175.653 233.426 175.653Z" fill="#262626"/>
<path opacity="0.5" d="M276.85 205.454H154.905C154.348 205.454 153.895 205.907 153.895 206.465C153.895 207.024 154.348 207.476 154.905 207.476H276.85C277.408 207.476 277.86 207.024 277.86 206.465C277.86 205.907 277.408 205.454 276.85 205.454Z" fill="#262626"/>
<path opacity="0.5" d="M233.426 216.321H154.905C154.348 216.321 153.895 216.774 153.895 217.332C153.895 217.89 154.348 218.343 154.905 218.343H233.426C233.984 218.343 234.436 217.89 234.436 217.332C234.436 216.774 233.984 216.321 233.426 216.321Z" fill="#262626"/>
<path d="M124.031 55.5024C124.136 55.2429 124.324 55.025 124.564 54.8818C124.805 54.7387 125.085 54.6782 125.364 54.7095C125.364 54.687 125.344 54.6327 125.383 54.633L124.478 54.0607C124.208 53.8978 124.006 53.6425 123.909 53.3418C123.812 53.0411 123.827 52.7154 123.951 52.4249C124.083 52.1419 124.315 51.9181 124.603 51.7969C124.89 51.6757 125.212 51.6657 125.507 51.7689C125.504 51.7566 125.512 51.7443 125.513 51.7327L125.141 51.4976C124.886 51.3431 124.693 51.1054 124.594 50.8247C124.495 50.5441 124.495 50.2377 124.596 49.9574C124.662 49.7831 124.767 49.6257 124.902 49.4967C125.037 49.3677 125.198 49.2702 125.375 49.2113C125.552 49.1524 125.74 49.1336 125.925 49.1561C126.11 49.1786 126.288 49.242 126.446 49.3416L127.305 49.885C127.307 49.8799 127.305 49.8745 127.307 49.8698C127.309 49.8651 127.319 49.8629 127.323 49.8575C127.122 49.6554 126.995 49.3908 126.963 49.1069C126.931 48.8231 126.997 48.5369 127.149 48.2952C127.501 47.6457 128.407 47.721 128.962 48.072L130.627 49.3141C130.883 49.5058 131.089 49.758 131.224 50.0483C131.36 50.3387 131.422 50.6581 131.405 50.9782C131.257 53.7485 130.697 60.9756 128.924 59.8527L124.56 57.0947C124.308 56.9261 124.118 56.6779 124.022 56.3895C123.927 56.1011 123.93 55.7889 124.031 55.5024V55.5024Z" fill="#E98862"/>
<path d="M125.075 56.0059C124.701 56.0061 124.341 55.8611 124.072 55.6013L118.012 49.7694C117.872 49.6381 117.761 49.4804 117.683 49.3056C117.605 49.1308 117.562 48.9422 117.558 48.7508C117.553 48.5595 117.586 48.3691 117.656 48.1906C117.725 48.0122 117.829 47.8493 117.961 47.7113C118.094 47.5733 118.252 47.4629 118.428 47.3866C118.603 47.3103 118.792 47.2695 118.983 47.2667C119.174 47.2638 119.364 47.2989 119.542 47.3699C119.719 47.441 119.881 47.5465 120.018 47.6805L125.051 52.5227L137.666 39.7807C137.799 39.6455 137.959 39.5381 138.134 39.4644C138.309 39.3908 138.497 39.3525 138.687 39.3516C138.877 39.3507 139.066 39.3873 139.242 39.4593C139.418 39.5314 139.578 39.6373 139.713 39.7713C139.848 39.9052 139.955 40.0644 140.029 40.2399C140.102 40.4154 140.141 40.6036 140.141 40.7939C140.142 40.9842 140.106 41.1727 140.034 41.3489C139.962 41.525 139.856 41.6852 139.722 41.8204L126.103 55.5759C125.969 55.7122 125.809 55.8204 125.632 55.8943C125.456 55.9681 125.266 56.006 125.075 56.0059V56.0059Z" fill="#0CBC8B"/>
<path d="M120.905 52.4691C120.935 52.2581 121.008 52.0555 121.119 51.8737C121.23 51.6918 121.377 51.5346 121.551 51.4115C121.725 51.2884 121.922 51.2021 122.131 51.1578C122.339 51.1135 122.554 51.1122 122.763 51.1538C123.164 51.2487 123.515 51.4925 123.743 51.8359C123.972 52.1793 124.062 52.5968 123.995 53.0041L123.952 55.2285C123.943 55.699 124.106 56.1567 124.411 56.515C124.715 56.8734 125.141 57.1077 125.606 57.1737V57.1737C126.062 57.2384 126.527 57.1372 126.915 56.8884C127.303 56.6396 127.589 56.2598 127.72 55.8179L128.854 52.0207L127.621 50.178C128.053 49.4825 128.415 47.6841 129.162 48.2198C129.794 48.6132 131.229 49.5644 131.622 50.4656C131.63 50.4692 132.365 58.2017 131.965 58.8464L128.427 68.3208C126.729 71.0563 118.537 68.9395 118.537 68.9395L120.905 52.4691Z" fill="#E98862"/>
<path d="M125.051 52.5227L137.666 39.7807C137.799 39.6455 137.959 39.5381 138.134 39.4644C138.309 39.3908 138.497 39.3525 138.687 39.3516C138.877 39.3507 139.066 39.3873 139.242 39.4593C139.418 39.5314 139.578 39.6373 139.713 39.7713C139.848 39.9052 139.955 40.0644 140.029 40.2399C140.102 40.4154 140.141 40.6036 140.141 40.7939C140.142 40.9842 140.106 41.1727 140.034 41.3489C139.962 41.525 139.856 41.6852 139.722 41.8204L126.103 55.5759" fill="#0CBC8B"/>
<path d="M60.6664 118.379L111.721 114.078C115.48 114.177 118.753 111.048 120.132 107.538L133.508 65.5708L116.01 58.6856L104.203 94.6339L59.3022 97.7795L60.6664 118.379Z" fill="#367CFF"/>
<path d="M31.0222 315.969C31.0222 315.969 32.656 324.445 40.5856 324.919C48.5152 325.393 46.7956 331.715 46.7956 331.715H16.4932V316.56L31.0222 315.969Z" fill="#367CFF"/>
<path d="M21.6759 161.324C21.6759 161.324 21.771 158.775 21.7508 164.556C21.6759 186.119 21.3021 210.749 20.3887 225.162C18.9206 248.331 15.1561 321.379 15.1561 321.379L35.0682 321.212L54.3674 160.448L21.6759 161.324Z" fill="#262626"/>
<path d="M44.162 186.752C44.162 186.752 44.987 202.4 45.139 206.073C45.4929 214.569 45.6159 223.365 45.6159 233.339L48.7555 207.193C48.7555 207.193 46.4587 198.999 44.162 186.752Z" fill="#0A0A0A"/>
<path d="M66.4711 315.969C66.4711 315.969 68.105 324.445 76.0346 324.919C83.9642 325.393 82.2446 331.715 82.2446 331.715H51.9421V316.56L66.4711 315.969Z" fill="#367CFF"/>
<path d="M76.1123 162.998C76.1123 162.998 77.8761 236.695 77.6177 240.297L70.2128 320.82L50.6296 321.182L52.5381 237.384C52.5381 237.384 51.192 214.268 45.6123 192.803C42.7576 181.787 41.0395 170.506 40.485 159.139V159.139L76.1123 162.998Z" fill="#262626"/>
<path d="M21.4588 161.321L21.3936 161.325C21.3936 161.325 21.441 160.067 21.4588 161.321Z" fill="#333333"/>
<path d="M78.9154 124.265C78.505 129.094 76.5072 157.05 76.1124 162.998H21.6976C21.3904 157.633 20.0098 134.174 18.8443 123.683C17.7315 113.671 15.5484 108.659 17.1486 105.7C19.7634 100.862 26.9088 98.0675 31.781 97.4072C34.7563 97.004 60.1211 96.7142 60.1819 96.7142C62.1743 96.7142 73.7758 97.6517 76.3403 99.6287C80.9806 103.206 79.6326 115.844 78.9154 124.265Z" fill="#367CFF"/>
<path d="M79.667 116.92C79.7132 116.92 79.7577 116.903 79.7913 116.871C79.825 116.839 79.8452 116.796 79.8479 116.75L80.2868 109.805C80.2896 109.757 80.2733 109.71 80.2414 109.675C80.2095 109.639 80.1646 109.617 80.1168 109.614C80.069 109.612 80.0223 109.629 79.9866 109.66C79.9509 109.692 79.929 109.737 79.9257 109.784L79.4868 116.729C79.484 116.777 79.5003 116.824 79.5322 116.86C79.5641 116.895 79.6089 116.917 79.6568 116.92L79.667 116.92Z" fill="#0C0C0C"/>
<path d="M9.93326 162.682C8.33298 162.682 6.75651 162.294 5.33799 161.553C3.91947 160.811 2.70089 159.738 1.78594 158.424C0.870977 157.109 0.286721 155.593 0.0828805 154.005C-0.12096 152.416 0.0616478 150.801 0.615167 149.298C1.1757 147.772 14.3549 112.838 16.863 106.365L35.441 113.899C34.0297 117.539 28.919 131.334 24.8125 142.447L31.6345 141.704L33.7818 161.477L11.0076 162.624C10.6508 162.663 10.2922 162.682 9.93326 162.682V162.682Z" fill="#367CFF"/>
<path d="M66.6647 96.0535C66.6039 96.0456 64.9346 102.333 51.9085 101.354C42.8907 100.678 40.6906 94.534 40.485 94.534C41.4574 94.3272 43.0365 94.1124 43.4683 93.882C44.8882 93.1181 45.9228 92.1886 46.4432 90.1931C46.8503 88.633 47.0583 82.6262 47.0583 79.6125L60.9349 82.7338C60.7413 86.1333 59.3875 94.0146 64.1323 95.4095C64.9216 95.6399 65.772 95.8518 66.6647 96.0535Z" fill="#E98862"/>
<path d="M60.4543 89.4168C54.984 89.849 47.9565 87.5369 46.6216 80.2312L45.4173 73.6386C44.0824 66.3329 46.8336 59.7085 53.7059 58.4505C60.5777 57.1925 66.7964 62.1749 68.131 69.4807L68.6644 72.3991C69.1764 75.2027 70.2146 88.646 60.4543 89.4168Z" fill="#E98862"/>
<path d="M65.5266 82.7091C64.5449 77.7705 64.0944 74.4754 64.1469 70.9995C65.5299 68.5726 65.1662 65.7834 64.8518 64.5794C65.8043 65.1849 66.9242 65.4722 68.0503 65.4002C68.0503 65.4002 65.7629 56.2112 57.9886 53.7387C56.5588 53.182 52.9087 52.4785 48.0622 53.1439C43.9402 53.7097 33.7789 56.7948 32.3271 68.2458V68.2524C32.2793 68.6323 31.3037 79.1829 29.3598 84.245C26.7453 91.0497 23.0741 93.1641 23.1671 101.016C23.2869 111.115 41.8352 112.46 53.0212 111.704C64.2073 110.949 70.4538 107.267 70.5356 99.9884C70.6246 91.8329 67.4916 92.5903 65.5266 82.7091Z" fill="#0A0A0A"/>
<path d="M20.5391 123.884L20.1774 123.897L21.5144 163.004L21.8761 162.992L20.5391 123.884Z" fill="#0C0C0C"/>
<path d="M345.761 331.969H5.45405C5.38687 331.969 5.32244 331.942 5.27494 331.895C5.22743 331.847 5.20074 331.783 5.20074 331.715C5.20074 331.648 5.22743 331.584 5.27494 331.536C5.32244 331.488 5.38687 331.462 5.45405 331.462H345.761C345.828 331.462 345.893 331.488 345.94 331.536C345.988 331.584 346.015 331.648 346.015 331.715C346.015 331.783 345.988 331.847 345.94 331.895C345.893 331.942 345.828 331.969 345.761 331.969V331.969Z" fill="#292A2E"/>
<path d="M310.635 284.497C310.539 284.497 310.447 284.459 310.379 284.391C309.869 283.881 309.038 274.517 306.8 246.639C305.884 235.231 305.018 224.457 304.387 217.909C304.342 217.441 304.161 217.387 304.101 217.369C303.237 217.108 300.609 219.183 299.141 220.999C299.111 221.036 299.074 221.067 299.033 221.09C298.991 221.112 298.945 221.127 298.898 221.132C298.851 221.137 298.803 221.132 298.757 221.119C298.712 221.105 298.669 221.083 298.632 221.053C298.595 221.023 298.565 220.986 298.542 220.944C298.519 220.903 298.505 220.857 298.5 220.809C298.495 220.762 298.499 220.714 298.513 220.669C298.526 220.623 298.549 220.581 298.578 220.544C299.549 219.342 302.711 216.194 304.309 216.675C304.632 216.772 305.033 217.052 305.108 217.839C305.739 224.393 306.605 235.171 307.521 246.581C308.882 263.522 310.422 282.715 310.929 283.924C310.968 283.978 310.991 284.042 310.996 284.108C311.001 284.175 310.987 284.241 310.957 284.3C310.927 284.36 310.88 284.41 310.824 284.444C310.767 284.479 310.701 284.497 310.635 284.497V284.497Z" fill="#494949"/>
<path d="M303.457 229.924C309.462 225.106 311.452 217.607 307.903 213.174C304.353 208.742 296.607 209.054 290.603 213.872C284.598 218.69 282.608 226.189 286.157 230.622C289.707 235.055 297.453 234.742 303.457 229.924Z" fill="#0CBC8B"/>
<path opacity="0.2" d="M303.457 229.924C309.462 225.106 311.452 217.607 307.903 213.174C304.353 208.742 296.607 209.054 290.603 213.872C284.598 218.69 282.608 226.189 286.157 230.622C289.707 235.055 297.453 234.742 303.457 229.924Z" fill="white"/>
<path d="M287.841 231.749C287.806 231.749 287.773 231.739 287.744 231.721C287.715 231.703 287.692 231.676 287.677 231.645C287.663 231.614 287.657 231.579 287.662 231.545C287.666 231.511 287.68 231.479 287.702 231.453L304.815 210.795C304.83 210.777 304.849 210.761 304.87 210.749C304.891 210.738 304.914 210.731 304.938 210.728C304.962 210.726 304.986 210.728 305.009 210.735C305.032 210.742 305.053 210.754 305.072 210.769C305.09 210.785 305.105 210.804 305.117 210.825C305.128 210.846 305.134 210.87 305.136 210.894C305.138 210.918 305.136 210.942 305.128 210.965C305.121 210.987 305.109 211.009 305.093 211.027L287.98 231.684C287.963 231.705 287.942 231.721 287.918 231.732C287.894 231.744 287.867 231.749 287.841 231.749Z" fill="white"/>
<path d="M314.367 280.069C314.31 280.069 314.253 280.055 314.202 280.028C314.15 280.002 314.106 279.963 314.073 279.916C314.039 279.869 314.017 279.815 314.009 279.758C314.001 279.7 314.007 279.642 314.026 279.587L320.454 261.082C320.643 260.539 320.966 260.051 321.392 259.665C321.818 259.278 322.334 259.005 322.894 258.869C323.453 258.734 324.037 258.742 324.592 258.891C325.148 259.041 325.657 259.327 326.073 259.725L329.471 262.976C329.541 263.042 329.581 263.133 329.583 263.229C329.585 263.325 329.549 263.418 329.483 263.488C329.417 263.557 329.326 263.598 329.23 263.6C329.134 263.602 329.041 263.566 328.971 263.5L325.573 260.25C325.245 259.936 324.843 259.71 324.404 259.592C323.966 259.474 323.505 259.468 323.063 259.575C322.622 259.682 322.214 259.897 321.878 260.203C321.541 260.508 321.287 260.892 321.137 261.321L314.709 279.825C314.684 279.896 314.638 279.958 314.577 280.002C314.516 280.045 314.443 280.069 314.367 280.069Z" fill="#494949"/>
<path d="M338.967 273.22C343.417 269.695 343.152 261.94 338.376 255.899C333.6 249.859 326.12 247.821 321.67 251.347C317.22 254.873 317.484 262.628 322.261 268.668C327.037 274.708 334.516 276.746 338.967 273.22Z" fill="#0CBC8B"/>
<path d="M307.715 283.317C307.633 283.317 307.554 283.29 307.49 283.239C307.427 283.189 307.382 283.118 307.363 283.039L296.576 237.89C296.502 237.582 296.345 237.3 296.122 237.076C295.898 236.852 295.618 236.694 295.311 236.619C295.003 236.544 294.681 236.555 294.38 236.652C294.079 236.748 293.81 236.926 293.604 237.165L290.278 241.012C290.215 241.085 290.126 241.129 290.031 241.136C289.935 241.143 289.84 241.112 289.768 241.049C289.695 240.986 289.65 240.897 289.644 240.801C289.637 240.705 289.668 240.61 289.731 240.538L293.056 236.691C293.35 236.351 293.732 236.099 294.161 235.962C294.589 235.825 295.046 235.809 295.483 235.916C295.919 236.022 296.318 236.247 296.635 236.566C296.952 236.885 297.175 237.285 297.279 237.723L308.067 282.872C308.08 282.925 308.08 282.981 308.069 283.034C308.057 283.088 308.033 283.138 307.999 283.181C307.965 283.224 307.922 283.259 307.873 283.283C307.823 283.306 307.769 283.319 307.715 283.319V283.317Z" fill="#494949"/>
<path d="M303.522 251.049C304.83 243.461 301.359 236.527 295.769 235.561C290.178 234.595 284.586 239.963 283.278 247.551C281.969 255.139 285.441 262.073 291.031 263.039C296.621 264.005 302.214 258.637 303.522 251.049Z" fill="#0CBC8B"/>
<path d="M310.636 284.497C310.621 284.497 310.606 284.496 310.591 284.494C310.544 284.489 310.498 284.474 310.457 284.45C310.415 284.427 310.379 284.395 310.35 284.358C310.32 284.32 310.299 284.277 310.286 284.232C310.274 284.186 310.27 284.138 310.276 284.091L317.164 228.106C317.239 227.496 317.489 226.921 317.883 226.45C318.276 225.978 318.798 225.631 319.384 225.449C319.97 225.267 320.597 225.259 321.188 225.425C321.779 225.591 322.309 225.924 322.716 226.384L330.589 235.311C330.653 235.383 330.685 235.477 330.679 235.573C330.673 235.669 330.63 235.759 330.558 235.822C330.486 235.886 330.391 235.918 330.296 235.913C330.2 235.907 330.11 235.863 330.047 235.791L322.173 226.864C321.859 226.508 321.449 226.251 320.992 226.122C320.535 225.994 320.051 226.001 319.598 226.141C319.145 226.282 318.742 226.55 318.438 226.914C318.133 227.279 317.94 227.723 317.882 228.194L310.994 284.179C310.983 284.267 310.941 284.348 310.875 284.406C310.809 284.465 310.724 284.497 310.636 284.497Z" fill="#494949"/>
<path d="M338.665 240.272C341.412 235.3 338.18 228.248 331.445 224.519C324.711 220.79 317.025 221.798 314.278 226.769C311.531 231.74 314.763 238.793 321.497 242.522C328.232 246.25 335.918 245.243 338.665 240.272Z" fill="#0CBC8B"/>
<path opacity="0.2" d="M338.967 273.22C343.417 269.695 343.152 261.94 338.376 255.899C333.6 249.859 326.12 247.821 321.67 251.347C317.22 254.873 317.484 262.628 322.261 268.668C327.037 274.708 334.516 276.746 338.967 273.22Z" fill="white"/>
<path opacity="0.5" d="M303.522 251.049C304.83 243.461 301.359 236.527 295.769 235.561C290.178 234.595 284.586 239.963 283.278 247.551C281.969 255.139 285.441 262.073 291.031 263.039C296.621 264.005 302.214 258.637 303.522 251.049Z" fill="white"/>
<path opacity="0.5" d="M338.665 240.272C341.412 235.3 338.18 228.248 331.445 224.519C324.711 220.79 317.025 221.798 314.278 226.769C311.531 231.74 314.763 238.793 321.497 242.522C328.232 246.25 335.918 245.243 338.665 240.272Z" fill="white"/>
<path d="M319.446 332H301.824L298.904 275.564H322.366L319.446 332Z" fill="#292A2E"/>
<path opacity="0.3" d="M319.446 332H301.824L298.904 275.564H322.366L319.446 332Z" fill="white"/>
<path d="M338.967 273.399C338.94 273.399 338.913 273.393 338.888 273.381C338.863 273.369 338.842 273.352 338.825 273.33L321.527 251.457C321.498 251.419 321.484 251.371 321.49 251.323C321.495 251.276 321.519 251.232 321.557 251.202C321.595 251.172 321.643 251.159 321.69 251.164C321.738 251.17 321.782 251.194 321.811 251.232L339.109 273.105C339.13 273.132 339.143 273.164 339.147 273.198C339.151 273.232 339.145 273.266 339.13 273.297C339.115 273.327 339.092 273.353 339.063 273.371C339.035 273.389 339.001 273.399 338.967 273.399H338.967Z" fill="white"/>
<path d="M337.514 242.024C337.476 242.024 337.438 242.011 337.408 241.988L315.274 225.811C315.254 225.797 315.238 225.78 315.226 225.759C315.213 225.739 315.205 225.716 315.201 225.693C315.198 225.669 315.199 225.645 315.204 225.622C315.21 225.599 315.22 225.577 315.234 225.558C315.248 225.539 315.266 225.523 315.286 225.51C315.306 225.498 315.329 225.49 315.352 225.486C315.376 225.482 315.4 225.483 315.423 225.489C315.446 225.495 315.468 225.505 315.487 225.519L337.623 241.697C337.653 241.72 337.675 241.751 337.687 241.788C337.698 241.824 337.698 241.863 337.686 241.899C337.674 241.935 337.651 241.966 337.62 241.989C337.589 242.011 337.552 242.023 337.514 242.023V242.024Z" fill="white"/>
<path d="M290.336 262.797C290.32 262.797 290.305 262.795 290.289 262.791C290.243 262.779 290.203 262.748 290.179 262.707C290.155 262.665 290.149 262.616 290.161 262.569L297.207 236.144C297.213 236.121 297.224 236.099 297.238 236.079C297.252 236.06 297.27 236.044 297.291 236.032C297.312 236.019 297.335 236.012 297.358 236.008C297.382 236.005 297.406 236.007 297.43 236.013C297.453 236.019 297.475 236.03 297.494 236.044C297.513 236.059 297.528 236.077 297.54 236.098C297.552 236.119 297.56 236.142 297.563 236.166C297.565 236.19 297.564 236.214 297.557 236.237L290.511 262.663C290.5 262.701 290.478 262.735 290.446 262.76C290.415 262.784 290.376 262.797 290.336 262.797V262.797Z" fill="white"/>
</svg>
